<svg version="1.1" id="Layer_1" xmlns="http://www.w3.org/2000/svg" xmlns:xlink="http://www.w3.org/1999/xlink" x="0px" y="0px"
	 width="100%" viewBox="0 0 1601 1427" enable-background="new 0 0 1601 1427" xml:space="preserve">
<path fill="#01367A" opacity="1.000000" stroke="none" 
	d="
M1602.000000,1423.000000 
	C1602.000000,1424.664673 1602.000000,1426.329224 1602.000000,1427.996948 
	C1486.311279,1428.000000 1370.622681,1428.000000 1254.458496,1427.616943 
	C1253.028442,1424.607910 1252.178345,1421.938354 1251.103516,1419.362671 
	C1236.509888,1384.393799 1221.828979,1349.461060 1207.284180,1314.471802 
	C1193.757812,1281.932373 1180.389771,1249.327148 1166.911621,1216.767578 
	C1157.166748,1193.226685 1147.353027,1169.714355 1137.575195,1146.187134 
	C1129.384277,1126.477905 1121.226318,1106.755005 1113.007446,1087.057495 
	C1101.729614,1060.028320 1090.372314,1033.032471 1079.116211,1005.994263 
	C1069.706299,983.390625 1060.415039,960.737610 1051.031128,938.123169 
	C1039.680542,910.769165 1028.280762,883.435486 1016.915039,856.087769 
	C1006.945923,832.100769 997.023926,808.094177 987.027100,784.118713 
	C975.755676,757.086365 964.386292,730.094788 953.129883,703.056213 
	C943.719849,680.452759 934.435425,657.797119 925.051453,635.182800 
	C913.700500,607.828491 902.294678,580.496826 890.928528,553.148743 
	C880.959473,529.162109 871.022156,505.162354 861.053223,481.175690 
	C849.687256,453.827698 838.306885,426.485687 826.923401,399.144958 
	C817.955994,377.607178 808.992676,356.067596 799.946289,334.562988 
	C799.485046,333.466583 798.255859,332.693298 796.918396,331.275818 
	C788.825012,350.847565 781.170044,369.505981 773.400757,388.116730 
	C757.082336,427.206207 740.642761,466.245148 724.369141,505.353119 
	C710.958252,537.581482 697.788574,569.910156 684.377991,602.138611 
	C668.104675,641.246948 651.641663,680.276428 635.352112,719.378052 
	C620.846008,754.198303 606.503235,789.086548 592.017151,823.915161 
	C576.830566,860.428101 561.521790,896.890198 546.335693,933.403320 
	C531.850098,968.232117 517.493347,1003.114441 503.007294,1037.942993 
	C487.820679,1074.455933 472.509613,1110.917114 457.323486,1147.430176 
	C442.837891,1182.259033 428.444336,1217.125977 414.008087,1251.975342 
	C403.560883,1277.195068 393.139709,1302.425903 382.651245,1327.628540 
	C374.767334,1346.572754 366.750519,1365.461670 358.876282,1384.409912 
	C352.849854,1398.911743 346.953949,1413.467896 340.999969,1428.000000 
	C227.666672,1428.000000 114.333336,1428.000000 1.000000,1427.997070 
	C1.000000,1426.662598 1.000000,1425.331299 1.359049,1423.563354 
	C3.333424,1420.698730 5.320262,1418.438354 6.503971,1415.815552 
	C14.333444,1398.466675 21.976624,1381.033691 29.707644,1363.640259 
	C36.700745,1347.906982 43.759060,1332.202393 50.733543,1316.460815 
	C60.722744,1293.914917 70.635162,1271.334961 80.630310,1248.791626 
	C88.950882,1230.025269 97.367332,1211.301392 105.697990,1192.539551 
	C115.974594,1169.395264 126.185310,1146.221558 136.464737,1123.078491 
	C143.521103,1107.191772 150.683960,1091.352295 157.731674,1075.461670 
	C169.071625,1049.893066 180.321793,1024.284790 191.674500,998.721863 
	C200.275650,979.354614 209.034485,960.057373 217.621048,940.683777 
	C230.161743,912.388550 242.554138,884.027527 255.115997,855.741760 
	C266.471741,830.171875 278.030823,804.692261 289.390686,779.124207 
	C304.645538,744.789368 319.777069,710.399719 334.995605,676.048767 
	C346.863098,649.261719 358.777161,622.495361 370.680420,595.724182 
	C385.408447,562.599792 400.150848,529.481689 414.879333,496.357513 
	C429.540466,463.384827 444.194641,430.408997 458.847229,397.432495 
	C472.155609,367.481201 485.464813,337.530304 498.760834,307.573517 
	C513.130676,275.197235 527.478821,242.811371 541.849060,210.435272 
	C555.145386,180.478714 568.437866,150.520416 581.769531,120.579567 
	C597.190125,85.947205 612.689148,51.349697 628.054382,16.692837 
	C630.318115,11.586857 632.031799,6.237010 634.000000,1.000004 
	C743.355347,1.000000 852.710693,1.000000 962.565369,1.365464 
	C973.085388,24.265388 983.051697,46.824196 993.142456,69.327232 
	C1002.558899,90.326363 1012.163147,111.241264 1021.583191,132.238770 
	C1032.558594,156.703339 1043.380493,181.236679 1054.349731,205.704010 
	C1063.696533,226.552322 1073.195923,247.332199 1082.558350,268.173523 
	C1093.885864,293.389191 1105.119629,318.647003 1116.434082,343.868591 
	C1124.159424,361.089569 1131.991089,378.262909 1139.707520,395.487854 
	C1150.873169,420.412262 1161.945312,445.378571 1173.119385,470.299133 
	C1180.909546,487.672455 1188.856079,504.975647 1196.639038,522.352051 
	C1207.396118,546.368958 1218.019775,570.445679 1228.786743,594.458069 
	C1236.983887,612.739441 1245.382690,630.930420 1253.570435,649.216064 
	C1264.257202,673.083252 1274.775879,697.025696 1285.458374,720.894836 
	C1293.439453,738.727783 1301.615479,756.473389 1309.614258,774.298462 
	C1320.659668,798.913208 1331.588623,823.580444 1342.626465,848.198608 
	C1351.906006,868.895447 1361.300415,889.540771 1370.589233,910.233521 
	C1381.909546,935.452271 1393.154053,960.705017 1404.467163,985.927002 
	C1412.123413,1002.996521 1419.870483,1020.025208 1427.524902,1037.095459 
	C1438.835571,1062.318970 1450.077759,1087.573242 1461.391846,1112.795166 
	C1469.116943,1130.016113 1476.960938,1147.183838 1484.669189,1164.412231 
	C1495.484497,1188.584839 1506.176270,1212.812744 1517.010254,1236.976929 
	C1525.138916,1255.107422 1533.464111,1273.149536 1541.602173,1291.275879 
	C1552.652344,1315.888794 1563.617310,1340.540039 1574.599243,1365.183472 
	C1581.201416,1379.998413 1587.654419,1394.881104 1594.414185,1409.623413 
	C1596.542847,1414.265747 1599.449463,1418.551147 1602.000000,1423.000000 
z"/>
<path fill="#000000" opacity="1.000000" stroke="none" 
	d="
M1602.000000,1422.531372 
	C1599.449463,1418.551147 1596.542847,1414.265747 1594.414185,1409.623413 
	C1587.654419,1394.881104 1581.201416,1379.998413 1574.599243,1365.183472 
	C1563.617310,1340.540039 1552.652344,1315.888794 1541.602173,1291.275879 
	C1533.464111,1273.149536 1525.138916,1255.107422 1517.010254,1236.976929 
	C1506.176270,1212.812744 1495.484497,1188.584839 1484.669189,1164.412231 
	C1476.960938,1147.183838 1469.116943,1130.016113 1461.391846,1112.795166 
	C1450.077759,1087.573242 1438.835571,1062.318970 1427.524902,1037.095459 
	C1419.870483,1020.025208 1412.123413,1002.996521 1404.467163,985.927002 
	C1393.154053,960.705017 1381.909546,935.452271 1370.589233,910.233521 
	C1361.300415,889.540771 1351.906006,868.895447 1342.626465,848.198608 
	C1331.588623,823.580444 1320.659668,798.913208 1309.614258,774.298462 
	C1301.615479,756.473389 1293.439453,738.727783 1285.458374,720.894836 
	C1274.775879,697.025696 1264.257202,673.083252 1253.570435,649.216064 
	C1245.382690,630.930420 1236.983887,612.739441 1228.786743,594.458069 
	C1218.019775,570.445679 1207.396118,546.368958 1196.639038,522.352051 
	C1188.856079,504.975647 1180.909546,487.672455 1173.119385,470.299133 
	C1161.945312,445.378571 1150.873169,420.412262 1139.707520,395.487854 
	C1131.991089,378.262909 1124.159424,361.089569 1116.434082,343.868591 
	C1105.119629,318.647003 1093.885864,293.389191 1082.558350,268.173523 
	C1073.195923,247.332199 1063.696533,226.552322 1054.349731,205.704010 
	C1043.380493,181.236679 1032.558594,156.703339 1021.583191,132.238770 
	C1012.163147,111.241264 1002.558899,90.326363 993.142456,69.327232 
	C983.051697,46.824196 973.085388,24.265388 963.032349,1.365464 
	C1175.954834,1.000000 1388.909668,1.000000 1602.000000,1.000000 
	C1602.000000,474.687561 1602.000000,948.375183 1602.000000,1422.531372 
z"/>
<path fill="#000000" opacity="1.000000" stroke="none" 
	d="
M633.531372,1.000004 
	C632.031799,6.237010 630.318115,11.586857 628.054382,16.692837 
	C612.689148,51.349697 597.190125,85.947205 581.769531,120.579567 
	C568.437866,150.520416 555.145386,180.478714 541.849060,210.435272 
	C527.478821,242.811371 513.130676,275.197235 498.760834,307.573517 
	C485.464813,337.530304 472.155609,367.481201 458.847229,397.432495 
	C444.194641,430.408997 429.540466,463.384827 414.879333,496.357513 
	C400.150848,529.481689 385.408447,562.599792 370.680420,595.724182 
	C358.777161,622.495361 346.863098,649.261719 334.995605,676.048767 
	C319.777069,710.399719 304.645538,744.789368 289.390686,779.124207 
	C278.030823,804.692261 266.471741,830.171875 255.115997,855.741760 
	C242.554138,884.027527 230.161743,912.388550 217.621048,940.683777 
	C209.034485,960.057373 200.275650,979.354614 191.674500,998.721863 
	C180.321793,1024.284790 169.071625,1049.893066 157.731674,1075.461670 
	C150.683960,1091.352295 143.521103,1107.191772 136.464737,1123.078491 
	C126.185310,1146.221558 115.974594,1169.395264 105.697990,1192.539551 
	C97.367332,1211.301392 88.950882,1230.025269 80.630310,1248.791626 
	C70.635162,1271.334961 60.722744,1293.914917 50.733543,1316.460815 
	C43.759060,1332.202393 36.700745,1347.906982 29.707644,1363.640259 
	C21.976624,1381.033691 14.333444,1398.466675 6.503971,1415.815552 
	C5.320262,1418.438354 3.333424,1420.698730 1.359049,1423.063477 
	C1.000000,949.100830 1.000000,475.201660 1.000000,1.000000 
	C211.687469,1.000000 422.375061,1.000000 633.531372,1.000004 
z"/>
<path fill="#000000" opacity="1.000000" stroke="none" 
	d="
M341.468628,1428.000000 
	C346.953949,1413.467896 352.849854,1398.911743 358.876282,1384.409912 
	C366.750519,1365.461670 374.767334,1346.572754 382.651245,1327.628540 
	C393.139709,1302.425903 403.560883,1277.195068 414.008087,1251.975342 
	C428.444336,1217.125977 442.837891,1182.259033 457.323486,1147.430176 
	C472.509613,1110.917114 487.820679,1074.455933 503.007294,1037.942993 
	C517.493347,1003.114441 531.850098,968.232117 546.335693,933.403320 
	C561.521790,896.890198 576.830566,860.428101 592.017151,823.915161 
	C606.503235,789.086548 620.846008,754.198303 635.352112,719.378052 
	C651.641663,680.276428 668.104675,641.246948 684.377991,602.138611 
	C697.788574,569.910156 710.958252,537.581482 724.369141,505.353119 
	C740.642761,466.245148 757.082336,427.206207 773.400757,388.116730 
	C781.170044,369.505981 788.825012,350.847565 796.918396,331.275818 
	C798.255859,332.693298 799.485046,333.466583 799.946289,334.562988 
	C808.992676,356.067596 817.955994,377.607178 826.923401,399.144958 
	C838.306885,426.485687 849.687256,453.827698 861.053223,481.175690 
	C871.022156,505.162354 880.959473,529.162109 890.928528,553.148743 
	C902.294678,580.496826 913.700500,607.828491 925.051453,635.182800 
	C934.435425,657.797119 943.719849,680.452759 953.129883,703.056213 
	C964.386292,730.094788 975.755676,757.086365 987.027100,784.118713 
	C997.023926,808.094177 1006.945923,832.100769 1016.915039,856.087769 
	C1028.280762,883.435486 1039.680542,910.769165 1051.031128,938.123169 
	C1060.415039,960.737610 1069.706299,983.390625 1079.116211,1005.994263 
	C1090.372314,1033.032471 1101.729614,1060.028320 1113.007446,1087.057495 
	C1121.226318,1106.755005 1129.384277,1126.477905 1137.575195,1146.187134 
	C1147.353027,1169.714355 1157.166748,1193.226685 1166.911621,1216.767578 
	C1180.389771,1249.327148 1193.757812,1281.932373 1207.284180,1314.471802 
	C1221.828979,1349.461060 1236.509888,1384.393799 1251.103516,1419.362671 
	C1252.178345,1421.938354 1253.028442,1424.607910 1253.991455,1427.616943 
	C1182.312378,1428.000000 1110.624878,1428.000000 1038.468628,1427.598877 
	C1036.702759,1423.782471 1035.405396,1420.367310 1034.057617,1416.623047 
	C1033.615845,1415.529419 1033.224609,1414.764771 1032.901367,1413.630371 
	C1031.682251,1410.491089 1030.395264,1407.721558 1029.057617,1404.623047 
	C1028.615723,1403.529419 1028.224609,1402.764771 1027.901367,1401.630371 
	C1026.682251,1398.491089 1025.395142,1395.721558 1024.057617,1392.623047 
	C1023.615784,1391.529419 1023.224609,1390.764771 1022.901367,1389.630493 
	C1021.682312,1386.491211 1020.395264,1383.721558 1019.057617,1380.623047 
	C1018.615784,1379.529419 1018.224609,1378.764771 1017.901367,1377.630493 
	C1016.682312,1374.491211 1015.395264,1371.721558 1014.057617,1368.623047 
	C1013.615784,1367.529419 1013.224548,1366.764771 1012.901367,1365.630493 
	C1011.682251,1362.491211 1010.395203,1359.721558 1009.057556,1356.623047 
	C1008.615784,1355.529419 1008.224609,1354.764771 1007.901367,1353.630493 
	C1006.682251,1350.491211 1005.395203,1347.721558 1004.057617,1344.623047 
	C1003.615784,1343.529297 1003.224609,1342.764771 1002.901367,1341.630493 
	C1001.682251,1338.491211 1000.395203,1335.721558 999.057556,1332.623047 
	C998.615784,1331.529419 998.224548,1330.764771 997.901001,1329.625488 
	C996.015137,1324.817871 994.061646,1320.384888 992.057617,1315.623047 
	C991.615784,1314.529419 991.224609,1313.764771 990.901367,1312.630493 
	C989.682312,1309.491211 988.395264,1306.721558 987.057617,1303.623047 
	C986.615784,1302.529419 986.224548,1301.764771 985.901367,1300.630493 
	C984.682312,1297.491211 983.395264,1294.721558 982.057617,1291.623047 
	C981.615784,1290.529419 981.224609,1289.764771 980.901367,1288.630493 
	C979.682312,1285.491211 978.395264,1282.721558 977.057617,1279.623047 
	C976.615784,1278.529419 976.224609,1277.764771 975.901367,1276.630493 
	C974.682312,1273.491211 973.395264,1270.721558 972.057617,1267.623047 
	C971.615784,1266.529419 971.224548,1265.764771 970.901367,1264.630493 
	C969.682251,1261.491211 968.395203,1258.721680 967.057556,1255.623047 
	C966.615723,1254.529419 966.224548,1253.764771 965.901367,1252.630493 
	C964.682312,1249.491211 963.395264,1246.721558 962.057617,1243.623047 
	C961.615723,1242.529419 961.224548,1241.764771 960.901367,1240.630493 
	C959.682312,1237.491211 958.395264,1234.721558 957.057556,1231.623047 
	C956.615723,1230.529419 956.224548,1229.764893 955.901001,1228.625488 
	C954.015137,1223.817871 952.061646,1219.384888 950.057617,1214.623047 
	C949.615784,1213.529419 949.224609,1212.764771 948.901367,1211.630493 
	C947.682312,1208.491211 946.395264,1205.721558 945.057556,1202.623047 
	C944.615723,1201.529419 944.224487,1200.764893 943.901367,1199.630493 
	C942.682312,1196.491211 941.395264,1193.721558 940.057556,1190.623047 
	C939.615723,1189.529419 939.224548,1188.764771 938.901367,1187.630493 
	C937.682312,1184.491211 936.395264,1181.721558 935.057617,1178.623047 
	C934.615723,1177.529419 934.224548,1176.764771 933.901367,1175.630493 
	C932.682251,1172.491211 931.395203,1169.721558 930.057495,1166.623047 
	C929.615723,1165.529419 929.224548,1164.764893 928.901306,1163.630493 
	C927.682251,1160.491211 926.395203,1157.721558 925.057556,1154.623047 
	C924.615723,1153.529419 924.224548,1152.764771 923.901367,1151.630493 
	C922.682312,1148.491211 921.395264,1145.721558 920.057617,1142.623047 
	C919.615784,1141.529419 919.224548,1140.764771 918.901367,1139.630493 
	C917.682312,1136.491211 916.395264,1133.721558 915.057556,1130.623047 
	C914.615723,1129.529419 914.224548,1128.764893 913.901001,1127.625488 
	C912.015137,1122.817871 910.061707,1118.384888 908.057617,1113.623047 
	C907.615784,1112.529419 907.224609,1111.764771 906.901367,1110.630493 
	C905.682312,1107.491211 904.395264,1104.721558 903.057617,1101.623047 
	C902.615784,1100.529419 902.224609,1099.764771 901.901367,1098.630493 
	C900.682312,1095.491211 899.395264,1092.721558 898.057617,1089.623047 
	C897.615784,1088.529419 897.224548,1087.764771 896.901367,1086.630493 
	C895.682373,1083.491211 894.395325,1080.721558 893.057617,1077.623047 
	C892.615784,1076.529419 892.224609,1075.764771 891.901367,1074.630493 
	C890.682312,1071.491211 889.395264,1068.721558 888.057617,1065.623047 
	C887.615784,1064.529419 887.224609,1063.764771 886.901367,1062.630493 
	C885.682312,1059.491211 884.395264,1056.721558 883.057617,1053.623047 
	C882.615784,1052.529419 882.224548,1051.764771 881.901367,1050.630493 
	C880.682312,1047.491211 879.395264,1044.721558 878.057617,1041.623047 
	C877.615784,1040.529419 877.224548,1039.764771 876.901367,1038.630493 
	C875.682312,1035.491211 874.395264,1032.721558 873.057617,1029.623047 
	C872.615784,1028.529419 872.224609,1027.764771 871.901001,1026.625488 
	C870.015198,1021.817749 868.061707,1017.384888 866.057617,1012.622925 
	C865.615784,1011.529358 865.224609,1010.764771 864.901367,1009.630493 
	C863.682312,1006.491150 862.395264,1003.721558 861.057617,1000.622925 
	C860.615784,999.529297 860.224609,998.764771 859.901367,997.630493 
	C858.682312,994.491150 857.395264,991.721558 856.057617,988.622925 
	C855.615784,987.529358 855.224548,986.764771 854.901367,985.630493 
	C853.682312,982.491211 852.395264,979.721619 851.057617,976.622925 
	C850.615784,975.529358 850.224548,974.764771 849.901367,973.630493 
	C848.682312,970.491211 847.395264,967.721619 846.057617,964.622925 
	C845.615784,963.529358 845.224548,962.764771 844.901367,961.630493 
	C843.682312,958.491211 842.395264,955.721619 841.057617,952.622925 
	C840.615784,951.529358 840.224609,950.764771 839.901367,949.630493 
	C838.682312,946.491150 837.395264,943.721619 836.057617,940.622925 
	C835.615723,939.529358 835.224548,938.764771 834.901001,937.625366 
	C833.015198,932.817688 831.061707,928.384827 829.057617,923.622925 
	C828.615784,922.529358 828.224548,921.764771 827.901367,920.630493 
	C826.682312,917.491150 825.395264,914.721619 824.057617,911.622925 
	C823.615784,910.529358 823.224548,909.764771 822.901367,908.630493 
	C821.682312,905.491150 820.395264,902.721619 819.057617,899.622925 
	C818.615723,898.529358 818.224548,897.764771 817.901367,896.630493 
	C816.682312,893.491150 815.395264,890.721619 814.057617,887.622925 
	C813.615723,886.529358 813.224548,885.764771 812.901367,884.630493 
	C811.682312,881.491150 810.395264,878.721619 809.057617,875.622925 
	C808.615784,874.529358 808.224548,873.764771 807.901062,872.625671 
	C806.060913,867.786377 804.153015,863.321655 802.167175,858.674438 
	C801.500671,859.289978 801.169983,859.456055 801.061462,859.715210 
	C796.057739,871.670471 791.095032,883.642822 786.082092,895.594238 
	C778.105713,914.610718 770.020508,933.581970 762.123108,952.631104 
	C753.307739,973.894409 744.742065,995.261353 735.897827,1016.512573 
	C727.427856,1036.864502 718.652039,1057.089233 710.171448,1077.436890 
	C700.762268,1100.012695 691.604675,1122.693481 682.209717,1145.275146 
	C672.626892,1168.308472 662.798889,1191.239990 653.243530,1214.284668 
	C643.688049,1237.329590 634.433472,1260.499512 624.866455,1283.539551 
	C617.084290,1302.281372 608.921387,1320.865112 601.133301,1339.604492 
	C591.626404,1362.479370 582.303467,1385.431030 572.973938,1408.379150 
	C570.882751,1413.522949 569.094360,1418.789917 567.093567,1424.308838 
	C566.999573,1425.040283 566.978638,1425.462769 566.609619,1425.940430 
	C565.841003,1426.663696 565.420532,1427.331909 565.000000,1428.000000 
	C490.645782,1428.000000 416.291534,1428.000000 341.468628,1428.000000 
z"/>
<path fill="#FEAD3C" opacity="1.000000" stroke="none" 
	d="
M1027.833374,1402.000244 
	C1028.224609,1402.764771 1028.615723,1403.529419 1028.842773,1404.880859 
	C1030.063599,1408.311890 1031.448486,1411.156006 1032.833374,1414.000244 
	C1033.224609,1414.764771 1033.615845,1415.529419 1033.841797,1416.883423 
	C1034.451050,1420.981934 1035.225586,1424.490967 1036.000000,1428.000000 
	C879.974182,1428.000000 723.948303,1428.000000 567.457886,1427.647461 
	C566.981445,1426.825073 566.969543,1426.355225 566.957642,1425.885376 
	C566.978638,1425.462769 566.999573,1425.040283 567.423706,1424.220459 
	C568.875916,1422.408936 570.258911,1421.134888 570.921875,1419.558228 
	C576.923035,1405.285767 582.758606,1390.943970 588.717468,1376.653564 
	C608.387817,1329.480713 628.128906,1282.337402 647.766174,1235.150757 
	C662.798035,1199.030396 677.661560,1162.840210 692.694336,1126.720215 
	C712.332825,1079.533936 732.105164,1032.403564 751.742676,985.216919 
	C766.774719,949.096619 781.673462,912.920837 796.674683,876.787720 
	C798.156616,873.218201 799.940613,869.774048 801.822937,865.763733 
	C804.259766,868.697693 806.046570,870.848938 807.833374,873.000244 
	C808.224548,873.764771 808.615784,874.529358 808.842834,875.880737 
	C810.063599,879.311829 811.448486,882.156006 812.833374,885.000244 
	C813.224548,885.764771 813.615723,886.529358 813.842834,887.880737 
	C815.063599,891.311829 816.448486,894.156067 817.833374,897.000244 
	C818.224548,897.764771 818.615723,898.529358 818.842834,899.880737 
	C820.063599,903.311829 821.448486,906.156006 822.833374,909.000244 
	C823.224548,909.764771 823.615784,910.529358 823.842834,911.880737 
	C825.063599,915.311829 826.448486,918.156006 827.833374,921.000244 
	C828.224548,921.764771 828.615784,922.529358 828.842163,923.882446 
	C830.729370,928.980713 832.781372,933.490479 834.833374,938.000244 
	C835.224548,938.764771 835.615723,939.529358 835.842834,940.880737 
	C837.063599,944.311829 838.448486,947.156006 839.833374,950.000244 
	C840.224609,950.764771 840.615784,951.529358 840.842834,952.880737 
	C842.063599,956.311829 843.448486,959.156067 844.833374,962.000244 
	C845.224548,962.764771 845.615784,963.529358 845.842834,964.880737 
	C847.063599,968.311829 848.448486,971.156006 849.833374,974.000244 
	C850.224548,974.764771 850.615784,975.529358 850.842834,976.880737 
	C852.063599,980.311829 853.448486,983.156067 854.833374,986.000244 
	C855.224548,986.764771 855.615784,987.529358 855.842834,988.880737 
	C857.063599,992.311829 858.448486,995.156006 859.833374,998.000244 
	C860.224609,998.764771 860.615784,999.529297 860.842834,1000.880737 
	C862.063599,1004.311829 863.448486,1007.156006 864.833374,1010.000244 
	C865.224609,1010.764771 865.615784,1011.529358 865.842163,1012.882446 
	C867.729309,1017.980713 869.781372,1022.490479 871.833374,1027.000244 
	C872.224609,1027.764771 872.615784,1028.529419 872.842896,1029.880859 
	C874.063660,1033.311890 875.448486,1036.156128 876.833374,1039.000244 
	C877.224548,1039.764771 877.615784,1040.529419 877.842896,1041.880859 
	C879.063660,1045.311890 880.448486,1048.156128 881.833374,1051.000244 
	C882.224548,1051.764771 882.615784,1052.529419 882.842896,1053.880859 
	C884.063660,1057.311890 885.448547,1060.156128 886.833374,1063.000244 
	C887.224609,1063.764771 887.615784,1064.529419 887.842896,1065.880859 
	C889.063660,1069.311890 890.448547,1072.156128 891.833374,1075.000244 
	C892.224609,1075.764771 892.615784,1076.529419 892.842896,1077.880859 
	C894.063660,1081.311890 895.448547,1084.156128 896.833374,1087.000244 
	C897.224548,1087.764771 897.615784,1088.529419 897.842896,1089.880859 
	C899.063599,1093.311890 900.448486,1096.156128 901.833374,1099.000244 
	C902.224609,1099.764771 902.615784,1100.529419 902.842896,1101.880859 
	C904.063660,1105.311890 905.448486,1108.156128 906.833374,1111.000244 
	C907.224609,1111.764771 907.615784,1112.529419 907.842224,1113.882446 
	C909.729492,1118.980713 911.781433,1123.490479 913.833374,1128.000244 
	C914.224548,1128.764893 914.615723,1129.529419 914.842834,1130.880859 
	C916.063599,1134.311890 917.448486,1137.156128 918.833374,1140.000244 
	C919.224548,1140.764771 919.615784,1141.529419 919.842896,1142.880859 
	C921.063660,1146.311890 922.448486,1149.156128 923.833374,1152.000244 
	C924.224548,1152.764771 924.615723,1153.529419 924.842896,1154.880859 
	C926.063660,1158.311890 927.448486,1161.156128 928.833374,1164.000244 
	C929.224548,1164.764893 929.615723,1165.529419 929.842834,1166.880859 
	C931.063660,1170.311890 932.448486,1173.156128 933.833374,1176.000244 
	C934.224548,1176.764771 934.615723,1177.529419 934.842896,1178.880859 
	C936.063660,1182.311890 937.448547,1185.156128 938.833374,1188.000244 
	C939.224548,1188.764771 939.615723,1189.529419 939.842896,1190.880859 
	C941.063660,1194.311890 942.448547,1197.156128 943.833374,1200.000244 
	C944.224487,1200.764893 944.615723,1201.529419 944.842834,1202.880859 
	C946.063599,1206.311890 947.448486,1209.156128 948.833374,1212.000244 
	C949.224609,1212.764771 949.615784,1213.529419 949.842285,1214.882446 
	C951.729431,1219.980713 953.781433,1224.490479 955.833374,1229.000244 
	C956.224548,1229.764893 956.615723,1230.529419 956.842834,1231.880859 
	C958.063660,1235.311890 959.448486,1238.156128 960.833374,1241.000244 
	C961.224548,1241.764771 961.615723,1242.529419 961.842896,1243.880859 
	C963.063599,1247.311890 964.448486,1250.156128 965.833374,1253.000244 
	C966.224548,1253.764771 966.615723,1254.529419 966.842896,1255.880859 
	C968.063599,1259.311890 969.448486,1262.156128 970.833374,1265.000244 
	C971.224548,1265.764771 971.615784,1266.529419 971.842896,1267.880859 
	C973.063660,1271.311890 974.448547,1274.156128 975.833374,1277.000244 
	C976.224609,1277.764771 976.615784,1278.529419 976.842896,1279.880859 
	C978.063660,1283.311890 979.448547,1286.156128 980.833374,1289.000244 
	C981.224609,1289.764771 981.615784,1290.529419 981.842896,1291.880859 
	C983.063660,1295.311890 984.448547,1298.156128 985.833374,1301.000244 
	C986.224548,1301.764771 986.615784,1302.529419 986.842896,1303.880859 
	C988.063660,1307.311890 989.448486,1310.156128 990.833374,1313.000244 
	C991.224609,1313.764771 991.615784,1314.529419 991.842285,1315.882446 
	C993.729492,1320.980713 995.781433,1325.490479 997.833374,1330.000244 
	C998.224548,1330.764771 998.615784,1331.529419 998.842896,1332.880859 
	C1000.063599,1336.311890 1001.448486,1339.156128 1002.833374,1342.000244 
	C1003.224609,1342.764771 1003.615784,1343.529297 1003.842896,1344.880859 
	C1005.063599,1348.311890 1006.448486,1351.156128 1007.833374,1354.000244 
	C1008.224609,1354.764771 1008.615784,1355.529419 1008.842896,1356.880859 
	C1010.063660,1360.311890 1011.448547,1363.156128 1012.833374,1366.000244 
	C1013.224548,1366.764771 1013.615784,1367.529419 1013.842896,1368.880859 
	C1015.063660,1372.311890 1016.448486,1375.156128 1017.833374,1378.000244 
	C1018.224609,1378.764771 1018.615784,1379.529419 1018.842896,1380.880859 
	C1020.063660,1384.311890 1021.448486,1387.156128 1022.833374,1390.000244 
	C1023.224609,1390.764771 1023.615784,1391.529419 1023.842896,1392.880859 
	C1025.063599,1396.311890 1026.448486,1399.156128 1027.833374,1402.000244 
z"/>
<path fill="#FEAD3C" opacity="1.000000" stroke="none" 
	d="
M1036.333252,1428.000000 
	C1035.225586,1424.490967 1034.451050,1420.981934 1033.892334,1417.212402 
	C1035.405396,1420.367310 1036.702759,1423.782471 1038.000000,1427.598877 
	C1037.555542,1428.000000 1037.111084,1428.000000 1036.333252,1428.000000 
z"/>
<path fill="#FEAD3C" opacity="1.000000" stroke="none" 
	d="
M566.609558,1425.940430 
	C566.969543,1426.355225 566.981445,1426.825073 566.996704,1427.647461 
	C566.555542,1428.000000 566.111084,1428.000000 565.333313,1428.000000 
	C565.420532,1427.331909 565.841003,1426.663696 566.609558,1425.940430 
z"/>
<path fill="#FEAD3C" opacity="1.000000" stroke="none" 
	d="
M807.901062,872.625671 
	C806.046570,870.848938 804.259766,868.697693 801.822937,865.763733 
	C799.940613,869.774048 798.156616,873.218201 796.674683,876.787720 
	C781.673462,912.920837 766.774719,949.096619 751.742676,985.216919 
	C732.105164,1032.403564 712.332825,1079.533936 692.694336,1126.720215 
	C677.661560,1162.840210 662.798035,1199.030396 647.766174,1235.150757 
	C628.128906,1282.337402 608.387817,1329.480713 588.717468,1376.653564 
	C582.758606,1390.943970 576.923035,1405.285767 570.921875,1419.558228 
	C570.258911,1421.134888 568.875916,1422.408936 567.496765,1423.911743 
	C569.094360,1418.789917 570.882751,1413.522949 572.973938,1408.379150 
	C582.303467,1385.431030 591.626404,1362.479370 601.133301,1339.604492 
	C608.921387,1320.865112 617.084290,1302.281372 624.866455,1283.539551 
	C634.433472,1260.499512 643.688049,1237.329590 653.243530,1214.284668 
	C662.798889,1191.239990 672.626892,1168.308472 682.209717,1145.275146 
	C691.604675,1122.693481 700.762268,1100.012695 710.171448,1077.436890 
	C718.652039,1057.089233 727.427856,1036.864502 735.897827,1016.512573 
	C744.742065,995.261353 753.307739,973.894409 762.123108,952.631104 
	C770.020508,933.581970 778.105713,914.610718 786.082092,895.594238 
	C791.095032,883.642822 796.057739,871.670471 801.061462,859.715210 
	C801.169983,859.456055 801.500671,859.289978 802.167175,858.674438 
	C804.153015,863.321655 806.060913,867.786377 807.901062,872.625671 
z"/>
<path fill="#FEAD3C" opacity="1.000000" stroke="none" 
	d="
M913.901001,1127.625488 
	C911.781433,1123.490479 909.729492,1118.980713 907.892822,1114.211426 
	C910.061707,1118.384888 912.015137,1122.817871 913.901001,1127.625488 
z"/>
<path fill="#FEAD3C" opacity="1.000000" stroke="none" 
	d="
M997.901001,1329.625488 
	C995.781433,1325.490479 993.729492,1320.980713 991.892883,1316.211426 
	C994.061646,1320.384888 996.015137,1324.817871 997.901001,1329.625488 
z"/>
<path fill="#FEAD3C" opacity="1.000000" stroke="none" 
	d="
M955.901001,1228.625488 
	C953.781433,1224.490479 951.729431,1219.980713 949.892822,1215.211426 
	C952.061646,1219.384888 954.015137,1223.817871 955.901001,1228.625488 
z"/>
<path fill="#FEAD3C" opacity="1.000000" stroke="none" 
	d="
M871.901001,1026.625488 
	C869.781372,1022.490479 867.729309,1017.980713 865.892761,1013.211487 
	C868.061707,1017.384888 870.015198,1021.817749 871.901001,1026.625488 
z"/>
<path fill="#FEAD3C" opacity="1.000000" stroke="none" 
	d="
M834.901001,937.625366 
	C832.781372,933.490479 830.729370,928.980713 828.892822,924.211487 
	C831.061707,928.384827 833.015198,932.817688 834.901001,937.625366 
z"/>
<path fill="#FEAD3C" opacity="1.000000" stroke="none" 
	d="
M943.901367,1199.630493 
	C942.448547,1197.156128 941.063660,1194.311890 939.893555,1191.209961 
	C941.395264,1193.721558 942.682312,1196.491211 943.901367,1199.630493 
z"/>
<path fill="#FEAD3C" opacity="1.000000" stroke="none" 
	d="
M839.901367,949.630493 
	C838.448486,947.156006 837.063599,944.311829 835.893433,941.209839 
	C837.395264,943.721619 838.682312,946.491150 839.901367,949.630493 
z"/>
<path fill="#FEAD3C" opacity="1.000000" stroke="none" 
	d="
M948.901367,1211.630493 
	C947.448486,1209.156128 946.063599,1206.311890 944.893494,1203.209961 
	C946.395264,1205.721558 947.682312,1208.491211 948.901367,1211.630493 
z"/>
<path fill="#FEAD3C" opacity="1.000000" stroke="none" 
	d="
M817.901367,896.630493 
	C816.448486,894.156067 815.063599,891.311829 813.893433,888.209839 
	C815.395264,890.721619 816.682312,893.491150 817.901367,896.630493 
z"/>
<path fill="#FEAD3C" opacity="1.000000" stroke="none" 
	d="
M960.901367,1240.630493 
	C959.448486,1238.156128 958.063660,1235.311890 956.893494,1232.209961 
	C958.395264,1234.721558 959.682312,1237.491211 960.901367,1240.630493 
z"/>
<path fill="#FEAD3C" opacity="1.000000" stroke="none" 
	d="
M965.901367,1252.630493 
	C964.448486,1250.156128 963.063599,1247.311890 961.893494,1244.209961 
	C963.395264,1246.721558 964.682312,1249.491211 965.901367,1252.630493 
z"/>
<path fill="#FEAD3C" opacity="1.000000" stroke="none" 
	d="
M970.901367,1264.630493 
	C969.448486,1262.156128 968.063599,1259.311890 966.893433,1256.209961 
	C968.395203,1258.721680 969.682251,1261.491211 970.901367,1264.630493 
z"/>
<path fill="#FEAD3C" opacity="1.000000" stroke="none" 
	d="
M975.901367,1276.630493 
	C974.448547,1274.156128 973.063660,1271.311890 971.893494,1268.209961 
	C973.395264,1270.721558 974.682312,1273.491211 975.901367,1276.630493 
z"/>
<path fill="#FEAD3C" opacity="1.000000" stroke="none" 
	d="
M980.901367,1288.630493 
	C979.448547,1286.156128 978.063660,1283.311890 976.893494,1280.209961 
	C978.395264,1282.721558 979.682312,1285.491211 980.901367,1288.630493 
z"/>
<path fill="#FEAD3C" opacity="1.000000" stroke="none" 
	d="
M985.901367,1300.630493 
	C984.448547,1298.156128 983.063660,1295.311890 981.893494,1292.209961 
	C983.395264,1294.721558 984.682312,1297.491211 985.901367,1300.630493 
z"/>
<path fill="#FEAD3C" opacity="1.000000" stroke="none" 
	d="
M990.901367,1312.630493 
	C989.448486,1310.156128 988.063660,1307.311890 986.893494,1304.209961 
	C988.395264,1306.721558 989.682312,1309.491211 990.901367,1312.630493 
z"/>
<path fill="#FEAD3C" opacity="1.000000" stroke="none" 
	d="
M812.901367,884.630493 
	C811.448486,882.156006 810.063599,879.311829 808.893433,876.209839 
	C810.395264,878.721619 811.682312,881.491150 812.901367,884.630493 
z"/>
<path fill="#FEAD3C" opacity="1.000000" stroke="none" 
	d="
M1002.901367,1341.630493 
	C1001.448486,1339.156128 1000.063599,1336.311890 998.893433,1333.209961 
	C1000.395203,1335.721558 1001.682251,1338.491211 1002.901367,1341.630493 
z"/>
<path fill="#FEAD3C" opacity="1.000000" stroke="none" 
	d="
M1007.901306,1353.630493 
	C1006.448486,1351.156128 1005.063599,1348.311890 1003.893433,1345.209961 
	C1005.395203,1347.721558 1006.682251,1350.491211 1007.901306,1353.630493 
z"/>
<path fill="#FEAD3C" opacity="1.000000" stroke="none" 
	d="
M1012.901367,1365.630493 
	C1011.448547,1363.156128 1010.063660,1360.311890 1008.893433,1357.209961 
	C1010.395203,1359.721558 1011.682251,1362.491211 1012.901367,1365.630493 
z"/>
<path fill="#FEAD3C" opacity="1.000000" stroke="none" 
	d="
M1017.901367,1377.630493 
	C1016.448486,1375.156128 1015.063660,1372.311890 1013.893494,1369.209961 
	C1015.395264,1371.721558 1016.682312,1374.491211 1017.901367,1377.630493 
z"/>
<path fill="#FEAD3C" opacity="1.000000" stroke="none" 
	d="
M1022.901367,1389.630493 
	C1021.448486,1387.156128 1020.063660,1384.311890 1018.893494,1381.209961 
	C1020.395264,1383.721558 1021.682312,1386.491211 1022.901367,1389.630493 
z"/>
<path fill="#FEAD3C" opacity="1.000000" stroke="none" 
	d="
M1027.901367,1401.630371 
	C1026.448486,1399.156128 1025.063599,1396.311890 1023.893433,1393.209961 
	C1025.395142,1395.721558 1026.682251,1398.491089 1027.901367,1401.630371 
z"/>
<path fill="#FEAD3C" opacity="1.000000" stroke="none" 
	d="
M1032.901367,1413.630371 
	C1031.448486,1411.156006 1030.063599,1408.311890 1028.893433,1405.209839 
	C1030.395264,1407.721558 1031.682251,1410.491089 1032.901367,1413.630371 
z"/>
<path fill="#FEAD3C" opacity="1.000000" stroke="none" 
	d="
M933.901367,1175.630493 
	C932.448486,1173.156128 931.063660,1170.311890 929.893433,1167.209961 
	C931.395203,1169.721558 932.682251,1172.491211 933.901367,1175.630493 
z"/>
<path fill="#FEAD3C" opacity="1.000000" stroke="none" 
	d="
M844.901367,961.630493 
	C843.448486,959.156067 842.063599,956.311829 840.893433,953.209839 
	C842.395264,955.721619 843.682312,958.491211 844.901367,961.630493 
z"/>
<path fill="#FEAD3C" opacity="1.000000" stroke="none" 
	d="
M849.901367,973.630493 
	C848.448486,971.156006 847.063599,968.311829 845.893433,965.209839 
	C847.395264,967.721619 848.682312,970.491211 849.901367,973.630493 
z"/>
<path fill="#FEAD3C" opacity="1.000000" stroke="none" 
	d="
M854.901367,985.630493 
	C853.448486,983.156067 852.063599,980.311829 850.893433,977.209839 
	C852.395264,979.721619 853.682312,982.491211 854.901367,985.630493 
z"/>
<path fill="#FEAD3C" opacity="1.000000" stroke="none" 
	d="
M859.901367,997.630493 
	C858.448486,995.156006 857.063599,992.311829 855.893433,989.209839 
	C857.395264,991.721558 858.682312,994.491150 859.901367,997.630493 
z"/>
<path fill="#FEAD3C" opacity="1.000000" stroke="none" 
	d="
M864.901367,1009.630493 
	C863.448486,1007.156006 862.063599,1004.311829 860.893433,1001.209839 
	C862.395264,1003.721558 863.682312,1006.491150 864.901367,1009.630493 
z"/>
<path fill="#FEAD3C" opacity="1.000000" stroke="none" 
	d="
M827.901367,920.630493 
	C826.448486,918.156006 825.063599,915.311829 823.893433,912.209839 
	C825.395264,914.721619 826.682312,917.491150 827.901367,920.630493 
z"/>
<path fill="#FEAD3C" opacity="1.000000" stroke="none" 
	d="
M876.901367,1038.630493 
	C875.448486,1036.156128 874.063660,1033.311890 872.893494,1030.209961 
	C874.395264,1032.721558 875.682312,1035.491211 876.901367,1038.630493 
z"/>
<path fill="#FEAD3C" opacity="1.000000" stroke="none" 
	d="
M881.901367,1050.630493 
	C880.448486,1048.156128 879.063660,1045.311890 877.893494,1042.209961 
	C879.395264,1044.721558 880.682312,1047.491211 881.901367,1050.630493 
z"/>
<path fill="#FEAD3C" opacity="1.000000" stroke="none" 
	d="
M886.901367,1062.630493 
	C885.448547,1060.156128 884.063660,1057.311890 882.893494,1054.209961 
	C884.395264,1056.721558 885.682312,1059.491211 886.901367,1062.630493 
z"/>
<path fill="#FEAD3C" opacity="1.000000" stroke="none" 
	d="
M891.901367,1074.630493 
	C890.448547,1072.156128 889.063660,1069.311890 887.893494,1066.209961 
	C889.395264,1068.721558 890.682312,1071.491211 891.901367,1074.630493 
z"/>
<path fill="#FEAD3C" opacity="1.000000" stroke="none" 
	d="
M896.901428,1086.630493 
	C895.448547,1084.156128 894.063660,1081.311890 892.893555,1078.209961 
	C894.395325,1080.721558 895.682373,1083.491211 896.901428,1086.630493 
z"/>
<path fill="#FEAD3C" opacity="1.000000" stroke="none" 
	d="
M901.901367,1098.630493 
	C900.448486,1096.156128 899.063599,1093.311890 897.893494,1090.209961 
	C899.395264,1092.721558 900.682312,1095.491211 901.901367,1098.630493 
z"/>
<path fill="#FEAD3C" opacity="1.000000" stroke="none" 
	d="
M906.901367,1110.630493 
	C905.448486,1108.156128 904.063660,1105.311890 902.893494,1102.209961 
	C904.395264,1104.721558 905.682312,1107.491211 906.901367,1110.630493 
z"/>
<path fill="#FEAD3C" opacity="1.000000" stroke="none" 
	d="
M822.901367,908.630493 
	C821.448486,906.156006 820.063599,903.311829 818.893433,900.209839 
	C820.395264,902.721619 821.682312,905.491150 822.901367,908.630493 
z"/>
<path fill="#FEAD3C" opacity="1.000000" stroke="none" 
	d="
M918.901367,1139.630493 
	C917.448486,1137.156128 916.063599,1134.311890 914.893494,1131.209961 
	C916.395264,1133.721558 917.682312,1136.491211 918.901367,1139.630493 
z"/>
<path fill="#FEAD3C" opacity="1.000000" stroke="none" 
	d="
M923.901367,1151.630493 
	C922.448486,1149.156128 921.063660,1146.311890 919.893494,1143.209961 
	C921.395264,1145.721558 922.682312,1148.491211 923.901367,1151.630493 
z"/>
<path fill="#FEAD3C" opacity="1.000000" stroke="none" 
	d="
M928.901367,1163.630493 
	C927.448486,1161.156128 926.063660,1158.311890 924.893433,1155.209961 
	C926.395203,1157.721558 927.682251,1160.491211 928.901367,1163.630493 
z"/>
<path fill="#FEAD3C" opacity="1.000000" stroke="none" 
	d="
M938.901367,1187.630493 
	C937.448547,1185.156128 936.063660,1182.311890 934.893555,1179.209961 
	C936.395264,1181.721558 937.682312,1184.491211 938.901367,1187.630493 
z"/>
</svg>