<svg version="1.1" id="Layer_1" xmlns="http://www.w3.org/2000/svg" xmlns:xlink="http://www.w3.org/1999/xlink" x="0px" y="0px"
	 width="100%" viewBox="0 0 2550 2550" enable-background="new 0 0 2550 2550" xml:space="preserve">
<path fill="#FFFFFF" opacity="1.000000" stroke="none" 
	d="
M1340.000000,2552.000000 
	C893.333313,2552.000000 447.666656,2552.000000 2.000000,2552.000000 
	C2.000000,1702.000000 2.000000,852.000000 2.000000,2.000000 
	C852.000000,2.000000 1702.000000,2.000000 2552.000000,2.000000 
	C2552.000000,852.000000 2552.000000,1702.000000 2552.000000,2552.000000 
	C2148.333252,2552.000000 1744.666626,2552.000000 1340.000000,2552.000000 
M1040.999878,2273.674805 
	C1195.205200,2273.674805 1349.410522,2273.674805 1503.799316,2273.674805 
	C1503.799316,2239.436279 1503.799316,2206.281006 1503.799316,2172.325928 
	C1501.382324,2172.325928 1499.439331,2172.364990 1497.498047,2172.320312 
	C1468.910034,2171.662354 1440.292969,2171.580811 1411.743408,2170.149658 
	C1386.605713,2168.889648 1361.485962,2166.641113 1336.463745,2163.874756 
	C1308.408203,2160.773193 1280.653809,2155.556885 1254.050659,2145.814941 
	C1225.628784,2135.406494 1201.444824,2118.846191 1183.599976,2093.966797 
	C1170.806396,2076.130371 1163.827881,2055.703369 1158.291504,2034.750000 
	C1146.600342,1990.502563 1142.896606,1945.095703 1142.649780,1899.711426 
	C1141.825684,1748.065186 1142.334717,1596.411621 1142.359131,1444.760864 
	C1142.359619,1442.201904 1142.686523,1439.642822 1142.911987,1436.337280 
	C1146.775146,1436.337280 1150.039062,1436.337280 1153.302979,1436.337280 
	C1178.633667,1436.337280 1203.966553,1436.556519 1229.294434,1436.295410 
	C1299.544067,1435.570923 1369.826904,1438.303955 1440.044434,1434.328491 
	C1462.560303,1433.053711 1485.107056,1432.113403 1507.573120,1430.226440 
	C1533.306396,1428.065063 1558.989014,1425.228638 1584.651367,1422.313232 
	C1629.505005,1417.217896 1673.776978,1408.808838 1717.587524,1397.992432 
	C1783.919312,1381.615845 1848.047852,1359.327759 1908.505859,1327.057617 
	C1959.914185,1299.617920 2006.756104,1266.157959 2047.388550,1224.168335 
	C2077.211670,1193.348999 2101.961670,1158.948608 2121.786621,1120.973755 
	C2153.005615,1061.174683 2169.118164,997.032288 2173.325928,930.171021 
	C2176.604248,878.076721 2175.538330,825.875732 2165.739746,774.232727 
	C2157.777832,732.271057 2145.589844,691.697510 2126.821777,653.253357 
	C2102.620117,603.679565 2069.983154,560.504089 2029.051147,523.413147 
	C1995.054565,492.606720 1957.407227,467.284912 1916.835815,446.174225 
	C1879.016479,426.495605 1839.491089,410.908234 1798.782715,398.351929 
	C1743.511353,381.303772 1687.054199,369.556061 1629.737549,362.150360 
	C1602.154541,358.586426 1574.427124,355.953461 1546.696655,353.766937 
	C1516.954834,351.421783 1487.134399,348.594940 1457.345215,348.557526 
	C1155.044067,348.177673 852.742249,348.325592 550.440674,348.325592 
	C547.184875,348.325592 543.929016,348.325623 540.828247,348.325623 
	C538.845642,360.463715 539.277466,442.251862 541.086487,448.773499 
	C560.389893,450.470398 579.572571,451.681519 598.630432,453.944214 
	C626.665649,457.272827 654.380615,462.398376 681.023499,472.173157 
	C707.881165,482.026642 729.211975,498.575378 743.713013,523.570007 
	C751.467285,536.935730 756.368347,551.340332 759.940247,566.242310 
	C769.576477,606.444519 771.614319,647.536316 773.521301,688.581421 
	C774.540771,710.524170 774.301392,732.534485 774.303833,754.514282 
	C774.344360,1112.143433 774.341125,1469.772583 774.322693,1827.401733 
	C774.320068,1877.611450 774.693298,1927.823853 770.403687,1977.936646 
	C767.852539,2007.740845 764.123596,2037.339478 755.106934,2065.928955 
	C742.290649,2106.565674 716.277039,2134.550781 675.286621,2148.416992 
	C638.853577,2160.741699 601.165771,2165.808105 563.209412,2169.572510 
	C546.434021,2171.236328 529.559631,2171.902344 512.757507,2173.019531 
	C510.914703,2183.771484 511.271759,2266.053955 513.296021,2273.674805 
	C688.448303,2273.674805 863.723999,2273.674805 1040.999878,2273.674805 
z"/>
<path fill="#010101" opacity="1.000000" stroke="none" 
	d="
M1039.999756,2273.674805 
	C863.723999,2273.674805 688.448303,2273.674805 513.296021,2273.674805 
	C511.271759,2266.053955 510.914703,2183.771484 512.757507,2173.019531 
	C529.559631,2171.902344 546.434021,2171.236328 563.209412,2169.572510 
	C601.165771,2165.808105 638.853577,2160.741699 675.286621,2148.416992 
	C716.277039,2134.550781 742.290649,2106.565674 755.106934,2065.928955 
	C764.123596,2037.339478 767.852539,2007.740845 770.403687,1977.936646 
	C774.693298,1927.823853 774.320068,1877.611450 774.322693,1827.401733 
	C774.341125,1469.772583 774.344360,1112.143433 774.303833,754.514282 
	C774.301392,732.534485 774.540771,710.524170 773.521301,688.581421 
	C771.614319,647.536316 769.576477,606.444519 759.940247,566.242310 
	C756.368347,551.340332 751.467285,536.935730 743.713013,523.570007 
	C729.211975,498.575378 707.881165,482.026642 681.023499,472.173157 
	C654.380615,462.398376 626.665649,457.272827 598.630432,453.944214 
	C579.572571,451.681519 560.389893,450.470398 541.086487,448.773499 
	C539.277466,442.251862 538.845642,360.463715 540.828247,348.325623 
	C543.929016,348.325623 547.184875,348.325592 550.440674,348.325592 
	C852.742249,348.325592 1155.044067,348.177673 1457.345215,348.557526 
	C1487.134399,348.594940 1516.954834,351.421783 1546.696655,353.766937 
	C1574.427124,355.953461 1602.154541,358.586426 1629.737549,362.150360 
	C1687.054199,369.556061 1743.511353,381.303772 1798.782715,398.351929 
	C1839.491089,410.908234 1879.016479,426.495605 1916.835815,446.174225 
	C1957.407227,467.284912 1995.054565,492.606720 2029.051147,523.413147 
	C2069.983154,560.504089 2102.620117,603.679565 2126.821777,653.253357 
	C2145.589844,691.697510 2157.777832,732.271057 2165.739746,774.232727 
	C2175.538330,825.875732 2176.604248,878.076721 2173.325928,930.171021 
	C2169.118164,997.032288 2153.005615,1061.174683 2121.786621,1120.973755 
	C2101.961670,1158.948608 2077.211670,1193.348999 2047.388550,1224.168335 
	C2006.756104,1266.157959 1959.914185,1299.617920 1908.505859,1327.057617 
	C1848.047852,1359.327759 1783.919312,1381.615845 1717.587524,1397.992432 
	C1673.776978,1408.808838 1629.505005,1417.217896 1584.651367,1422.313232 
	C1558.989014,1425.228638 1533.306396,1428.065063 1507.573120,1430.226440 
	C1485.107056,1432.113403 1462.560303,1433.053711 1440.044434,1434.328491 
	C1369.826904,1438.303955 1299.544067,1435.570923 1229.294434,1436.295410 
	C1203.966553,1436.556519 1178.633667,1436.337280 1153.302979,1436.337280 
	C1150.039062,1436.337280 1146.775146,1436.337280 1142.911987,1436.337280 
	C1142.686523,1439.642822 1142.359619,1442.201904 1142.359131,1444.760864 
	C1142.334717,1596.411621 1141.825684,1748.065186 1142.649780,1899.711426 
	C1142.896606,1945.095703 1146.600342,1990.502563 1158.291504,2034.750000 
	C1163.827881,2055.703369 1170.806396,2076.130371 1183.599976,2093.966797 
	C1201.444824,2118.846191 1225.628784,2135.406494 1254.050659,2145.814941 
	C1280.653809,2155.556885 1308.408203,2160.773193 1336.463745,2163.874756 
	C1361.485962,2166.641113 1386.605713,2168.889648 1411.743408,2170.149658 
	C1440.292969,2171.580811 1468.910034,2171.662354 1497.498047,2172.320312 
	C1499.439331,2172.364990 1501.382324,2172.325928 1503.799316,2172.325928 
	C1503.799316,2206.281006 1503.799316,2239.436279 1503.799316,2273.674805 
	C1349.410522,2273.674805 1195.205200,2273.674805 1039.999756,2273.674805 
M1142.335327,704.999878 
	C1142.437500,897.935364 1142.539429,1090.870850 1142.665771,1283.806396 
	C1142.666016,1284.063110 1143.018433,1284.331299 1143.230347,1284.573120 
	C1143.449463,1284.823242 1143.697876,1285.047607 1144.315063,1285.664795 
	C1150.249634,1285.664795 1156.567993,1285.704346 1162.885742,1285.658691 
	C1223.142944,1285.223267 1283.400146,1284.792725 1343.657227,1284.320312 
	C1379.211060,1284.041504 1414.403931,1280.056519 1449.476440,1274.406738 
	C1500.272461,1266.224121 1549.122803,1252.217407 1595.130127,1228.692383 
	C1665.243652,1192.840698 1713.607788,1137.691040 1741.705688,1064.522339 
	C1762.533813,1010.284668 1769.843140,953.520447 1771.530640,895.882751 
	C1771.976929,880.637939 1770.607666,865.347717 1770.374023,850.073669 
	C1769.972290,823.800415 1766.759277,797.845215 1761.918335,772.070679 
	C1753.329712,726.342285 1738.532104,682.916382 1714.237427,642.948730 
	C1679.327881,585.518188 1630.552124,544.563354 1568.045044,520.192322 
	C1513.937500,499.096283 1457.450073,490.087158 1399.596558,489.766663 
	C1328.286255,489.371582 1256.972168,489.672180 1185.659668,489.672791 
	C1182.993774,489.672791 1180.304932,489.452423 1177.665894,489.720703 
	C1161.734131,491.340271 1146.245239,499.931091 1143.686768,520.252625 
	C1143.068359,525.163635 1142.400757,530.115112 1142.392700,535.049072 
	C1142.302002,591.032471 1142.335205,647.016174 1142.335327,704.999878 
z"/>
<path fill="#FFFFFF" opacity="1.000000" stroke="none" 
	d="
M1142.335205,703.999817 
	C1142.335205,647.016174 1142.302002,591.032471 1142.392700,535.049072 
	C1142.400757,530.115112 1143.068359,525.163635 1143.686768,520.252625 
	C1146.245239,499.931091 1161.734131,491.340271 1177.665894,489.720703 
	C1180.304932,489.452423 1182.993774,489.672791 1185.659668,489.672791 
	C1256.972168,489.672180 1328.286255,489.371582 1399.596558,489.766663 
	C1457.450073,490.087158 1513.937500,499.096283 1568.045044,520.192322 
	C1630.552124,544.563354 1679.327881,585.518188 1714.237427,642.948730 
	C1738.532104,682.916382 1753.329712,726.342285 1761.918335,772.070679 
	C1766.759277,797.845215 1769.972290,823.800415 1770.374023,850.073669 
	C1770.607666,865.347717 1771.976929,880.637939 1771.530640,895.882751 
	C1769.843140,953.520447 1762.533813,1010.284668 1741.705688,1064.522339 
	C1713.607788,1137.691040 1665.243652,1192.840698 1595.130127,1228.692383 
	C1549.122803,1252.217407 1500.272461,1266.224121 1449.476440,1274.406738 
	C1414.403931,1280.056519 1379.211060,1284.041504 1343.657227,1284.320312 
	C1283.400146,1284.792725 1223.142944,1285.223267 1162.885742,1285.658691 
	C1156.567993,1285.704346 1150.249634,1285.664795 1144.315063,1285.664795 
	C1143.697876,1285.047607 1143.449463,1284.823242 1143.230347,1284.573120 
	C1143.018433,1284.331299 1142.666016,1284.063110 1142.665771,1283.806396 
	C1142.539429,1090.870850 1142.437500,897.935364 1142.335205,703.999817 
z"/>
</svg>